/* XPM */
static const char *logo_fa[] = {
/* columns rows colors chars-per-pixel */
"55 55 89 1",
"  c #007200",
". c #007300",
"X c #007400",
"o c #AE0806",
"O c #AE0907",
"+ c #AE0A08",
"@ c #AF0A08",
"# c #AF0B09",
"$ c #AF0C0A",
"% c #B00D0B",
"& c #B00E0C",
"* c #B00E0D",
"= c #B00F0D",
"- c #B1100E",
"; c #B1100F",
": c #B1110F",
"> c #B11210",
", c #B21311",
"< c #B21312",
"1 c #B21412",
"2 c #B31614",
"3 c #B31615",
"4 c #B31816",
"5 c #B41918",
"6 c #B41A18",
"7 c #B41A19",
"8 c #B41B1A",
"9 c #B51C1B",
"0 c #B51D1B",
"q c #B51D1C",
"w c #B51F1D",
"e c #B61F1E",
"r c #B6201F",
"t c #B6211F",
"y c #B82625",
"u c #B82725",
"i c #BA2B2A",
"p c #BA2C2A",
"a c #BA2C2B",
"s c #BA2D2C",
"d c #BB2F2E",
"f c #BC3130",
"g c #BC3332",
"h c #BD3332",
"j c #BD3432",
"k c #BD3433",
"l c #BD3534",
"z c #BE3736",
"x c #BE3838",
"c c #BE3A38",
"v c #BF3C3B",
"b c #C03D3D",
"n c #C03E3D",
"m c #C0403F",
"M c #C24343",
"N c #C24443",
"B c #C24645",
"V c #C34847",
"C c #C44A4A",
"Z c #C54B4B",
"A c #C54C4C",
"S c #C64E4D",
"D c #C54F4E",
"F c #C75252",
"G c #C75352",
"H c #C75453",
"J c #C85656",
"K c #C85757",
"L c #C95B5A",
"P c #CB5D5E",
"I c #CB5F5F",
"U c #CC6463",
"Y c #CE6767",
"T c #CE6868",
"R c #CF6C6C",
"E c #D17373",
"W c #D37677",
"Q c #D37777",
"! c #D37878",
"~ c #D37879",
"^ c #D47A7B",
"/ c #D47B7B",
"( c #D47C7C",
") c #D57C7D",
"_ c #D57E7F",
"` c #D57F7F",
"' c #D67F80",
"] c #D68081",
"[ c None",
/* pixels */
"[[[[[[[[[[[[[[[[[[[[[[[[[[[[&[[[[[[[[[[[[[[[[[[[[[[[[[[",
"[[[[[[[[[[[[[[[[[[[[[[[[[[[&$[[[[[[[[[[[[[[[[[[[[[[[[[[",
"[[[[[[[[[[[[[[[[[[[[[[[[[[[[+8[[[[[[[[[[[[[[[[[[[[[[[[[",
"[[[[[[[[[[[[[[[[[[[[[[[[[[[[Oq[[[[[[[[[[[[[[[[[[[[[[[[[",
"[[[[[[[[[[[[[[[[[[[[[[[[...[$8[[[[[[[[[[[[[[[[[[[[[[[[[",
"[[[[[[[[[[[[[[[[[[[[[...[[[[-8[[[[[[[[[[[[[[[[[[[[[[[[[",
"[[[[[[[[[[[[[[[[[[[[.X[[[[[[13p[[[[[[[[[[[[[[[[[[[[[[[[",
"[[[[[[[[[[[[[[[[[[..[[[[[[[[4-d[[[[[[[[[[[[[[[[[[[[[[[[",
"[[[[[[[[[[[[[[[[[..[[[[[[[[.[%g[[[[[[[[[[[[[[[[[[[[[[[[",
"[[[[[[[[[[[[[[[[...[[[[[[[..[Og[[[[[[[[[[[[[[[[[[[[[[[[",
"[[[[[[[[[[[[[[[.[.[[[.......[&sb[[[[[[[[[[[[[[[[[[[[[[[",
"[[[[[[[[[[[[[[.[[....[[[[[.[[1yn[[[[[[[[[[[[[[[[[[[[[[[",
"[[[[[[[[[[[[[.[[...[[[[[[[X[[89M[[[[[[[[[[[[[[[[[[[[[[[",
"[[[[[[[[[[[[X....[[[[[[[[.[[[[+xV[[[[[[[[[[[[[[[[[[[[[[",
"[[[[[[[[[[[[...[.[[[[[[[[.[[[[i%&OoOO[[[[[[[[[[[[[[[[[[",
"[[[[[[[[[[[.[[[[.[[[[[[[[.[[[[DZn[[[[OO[[[[[[[[[[[[[[[[",
"[[[[[[[[[[X.[[[[.[[[[[[[[.[[[[FFH[[[Oo[[[[[[[[[[[[[[[[[",
"[[[[[[[[[[.[[[[[.[[[[[[[[.[[.[JKJDOo[[[[[[[[[[[[[[[[[[[",
"[[[[[[[[[[.[[[[X.[[[[[[[[[..[[[Ln%%[[[[[[[[[[[[[[[[[[[[",
"[[[[[[[[[.[[[[[.[[[[[[[[[..[[[[z%b[[[[[[[[[[[[[[[[[[[[[",
"[[[[[[[[[.[[[[[.[[[[[[[..[.[[[[$BU[[[[[[[[[[[[[[[[[[[[[",
"[[[[[[[[[.[[[[[.X[[[[[.X[[[.[[[$YTT[[[[[[[[[[[[[[[[[[[[",
"[[[[[[[[.[[[[[[[.[[[[..[[[[.[[[-kTR[[[[[[[[[[[[[[[[[[[[",
"[[[[[[[[.[[[[[[[.[[[.[[[[[[[.[[D1%82oO[[[[OoOo[[[[[[[[[",
"[[[[[[[[.[[[[[[[.[[.[[[[[[[[..[[EIMx[[OOoOO[[OoO[[[[[[[",
"[[[[[[[[.[[[[[[[.[.[[[[[[[[[[.X[QQQ![[[[[[[[[[o[[[[[[[[",
"[[[[[[[[.[[[[[[[..[[[[[[[[[[[[.[//))[[[[[[[[Oo[[[[[[[[[",
"[[[[[[[[.[[[[[[[..[[[[[[[[[[[[.[])]][[[[[[oO[[[[[[[[[[[",
"[[[[[[[[.[[[[[[X..[[[[[[[[[[[[.[[[[[[[[[OO[[[[[[[[[[[[[",
"[[[[[[[[.[[[[[[.[.[[[[[[[[[[[.[[[[[[[[[Oo[[[[[[[[[[[[[[",
"[[[[[[[[.[[[[[.[[[.[[[[[[[[[..[[[[[[I-O[[[[[[[[[[[[[[[[",
"[[[[[[[[X[[[[.[[[[.[[[[[[[[[.[[[[[[p$l[[[[[[[[[[[[[[[[[",
"[[[[[[[[.[[[..[[[[[.[[[[[[[.[[[[[[r4[[[[[[[[[[[[[[[[[[[",
"[[[[[[[[.[[[.[[[[[[.[[[[[[X.[[[[[y9[[[[[[[[[[[[[[[[[[[[",
"[[[[[[[[[.[.[[[[[[[[.[[[[[.[[[[[[$[[[[[[[[[[[[[[[[[[[[[",
"[[[[[[[[[...[[[[[[[[[.[[[.[[[[[[[O[[[[[[[[[[[[[[[[[[[[[",
"[[[[[[[[[..[[[[[[[[[[[.[[.[[[[[[[%[[[[[[[[[[[[[[[[[[[[[",
"[[[[[[[[[[.[[[[[[[[[[[[..[[[[[[[[1Z[[[[[[[[[[[[[[[[[[[[",
"[[[[[[[[[[.[[[[[[[[[[[[..[[[[[[[[9f[[[[[[[[[[[[[[[[[[[[",
"[[[[[[[[[[[.[[[[[[[[[[[.[..[[[[[[[$[[[[[[[[[[[[[[[[[[[[",
"[[[[[[[[[[[..[[[[[[[[[[.[[[..[[[[[b+r[[[[[[[[[[[[[[[[[[",
"[[[[[[[[[[[[.[[[[[[[[[.[[[[[[...[[[[f&%9p[[[[[[[[[[[[[[",
"[[[[[[[[[[[[[.[[[[[[[[X[[[[[[[[X.[[[[[[vrOoo[[[[[[[[[[[",
"[[[[[[[[[[[[[..[[[[[[.[[[[[[[[[[[[[[[[[[[[[OO[[[[[[[[[[",
"[[[[[[[[[[[[[[..[[[[[.[[[[[[[[[[[[[[[[[[[[[[o[[[[[[[[[[",
"[[[[[[[[[[[[[[[.X[[[XX[[[[[[[[[[[[[[[[[[[[OO[[[[[[[[[[[",
"[[[[[[[[[[[[[[[[..[[.[[[[[[[[[[[[[[[[[[[k%+[[[[[[[[[[[[",
"[[[[[[[[[[[[[[[[[[...[[[[[[[[[[[[[[[[[[&>[[[[[[[[[[[[[[",
"[[[[[[[[[[[[[[[[[[[X.[[[[[[[[[[[[[[[[r%[[[[[[[[[[[[[[[[",
"[[[[[[[[[[[[[[[[[[[[...[[[[[[[[[[[[[>-[[[[[[[[[[[[[[[[[",
"[[[[[[[[[[[[[[[[[[[[[[[..[[[[[[[[[[[O[[[[[[[[[[[[[[[[[[",
"[[[[[[[[[[[[[[[[[[[[[[[[[.....[[[[[[o[[[[[[[[[[[[[[[[[[",
"[[[[[[[[[[[[[[[[[[[[[[[[[[[[[....XX[o[[[[[[[[[[[[[[[[[[",
"[[[[[[[[[[[[[[[[[[[[[[[[[[[[[[[[[[[[o[[[[[[[[[[[[[[[[[[",
"[[[[[[[[[[[[[[[[[[[[[[[[[[[[[[[[[[[[O[[[[[[[[[[[[[[[[[["
};
